# xmcd CD database file
#
# Track frame offsets:
#	150
#	11243
#	25284
#	34753
#	45841
#	61044
#	78369
#	92033
#	104464
#	118050
#	129773
#	145552
#	157607
#	169848
#	184541
#	200387
#	217068
#
# Disc length: 3155 seconds
#
# Revision: 1
# Processed by: cddbd v1.5.2PL0 Copyright (c) Steve Scherf et al.
# Submitted via: CDex 1.51
#
DISCID=d10c5111
DTITLE=Frankie McBride - Irish Country Album
DYEAR=1900
DGENRE=Country
TTITLE0=Burning Bridges
TTITLE1=Could I Have This Dance
TTITLE2=If I Kiss You
TTITLE3=Am I That Easy To Forget
TTITLE4=Ebony Eyes
TTITLE5=Empty Chairs
TTITLE6=Five Little Fingers
TTITLE7=Have I Told You Lately That I Love You
TTITLE8=Just Beyond The Moon
TTITLE9=Hold Me
TTITLE10=I'm Being Good
TTITLE11=Behind Closed Doors
TTITLE12=Laura (What's He Got)
TTITLE13=Nobody's Child
TTITLE14=Long Blac Veil
TTITLE15=Rock'n'roll I Gave You The Best Years Of My Life
TTITLE16=Two Little Orphans
EXTD=
EXTT0=
EXTT1=
EXTT2=
EXTT3=
EXTT4=
EXTT5=
EXTT6=
EXTT7=
EXTT8=
EXTT9=
EXTT10=
EXTT11=
EXTT12=
EXTT13=
EXTT14=
EXTT15=
EXTT16=
PLAYORDER=
